<mxfile modified="2020-08-21T09:14:49.142Z" host="app.diagrams.net" agent="5.0 (Windows NT 10.0; Win64; x64) AppleWebKit/537.36 (KHTML, like Gecko) Chrome/84.0.4147.135 Safari/537.36" etag="SlKQomUiztMKop7gfef-" version="13.6.4" type="github">
  <diagram id="Ht1M8jgEwFfnCIfOTk4-" name="Page-1">
    <mxGraphModel dx="1185" dy="635" grid="1" gridSize="10" guides="1" tooltips="1" connect="1" arrows="1" fold="1" page="1" pageScale="1" pageWidth="1169" pageHeight="827" math="0" shadow="0">
      <root>
        <mxCell id="0" />
        <mxCell id="1" parent="0" />
        <mxCell id="JZkUBXai_LNXm1DaVT8u-33" value="VPC" style="outlineConnect=0;gradientColor=none;html=1;whiteSpace=wrap;fontSize=12;fontStyle=0;shape=mxgraph.aws4.group;grIcon=mxgraph.aws4.group_vpc;strokeColor=#879196;fillColor=none;verticalAlign=top;align=left;spacingLeft=30;fontColor=#879196;dashed=0;" vertex="1" parent="1">
          <mxGeometry x="340" y="160" width="580" height="380" as="geometry" />
        </mxCell>
        <mxCell id="JZkUBXai_LNXm1DaVT8u-9" value="tokyo Region" style="points=[[0,0],[0.25,0],[0.5,0],[0.75,0],[1,0],[1,0.25],[1,0.5],[1,0.75],[1,1],[0.75,1],[0.5,1],[0.25,1],[0,1],[0,0.75],[0,0.5],[0,0.25]];outlineConnect=0;gradientColor=none;html=1;whiteSpace=wrap;fontSize=12;fontStyle=0;shape=mxgraph.aws4.group;grIcon=mxgraph.aws4.group_vpc;strokeColor=#248814;fillColor=none;verticalAlign=top;align=left;spacingLeft=30;fontColor=#AAB7B8;dashed=0;opacity=40;" vertex="1" parent="1">
          <mxGeometry x="320" y="131.25" width="710" height="478.75" as="geometry" />
        </mxCell>
        <mxCell id="JZkUBXai_LNXm1DaVT8u-7" value="Public subnet" style="points=[[0,0],[0.25,0],[0.5,0],[0.75,0],[1,0],[1,0.25],[1,0.5],[1,0.75],[1,1],[0.75,1],[0.5,1],[0.25,1],[0,1],[0,0.75],[0,0.5],[0,0.25]];outlineConnect=0;gradientColor=none;html=1;whiteSpace=wrap;fontSize=12;fontStyle=0;shape=mxgraph.aws4.group;grIcon=mxgraph.aws4.group_security_group;grStroke=0;strokeColor=#248814;fillColor=#E9F3E6;verticalAlign=top;align=left;spacingLeft=30;fontColor=#248814;dashed=0;opacity=40;" vertex="1" parent="1">
          <mxGeometry x="395" y="200" width="505" height="140" as="geometry" />
        </mxCell>
        <mxCell id="JZkUBXai_LNXm1DaVT8u-3" value="" style="outlineConnect=0;fontColor=#232F3E;gradientColor=none;fillColor=#D86613;strokeColor=none;dashed=0;verticalLabelPosition=bottom;verticalAlign=top;align=center;html=1;fontSize=12;fontStyle=0;aspect=fixed;pointerEvents=1;shape=mxgraph.aws4.instance2;" vertex="1" parent="1">
          <mxGeometry x="800" y="240" width="48" height="48" as="geometry" />
        </mxCell>
        <mxCell id="JZkUBXai_LNXm1DaVT8u-2" value="ehjo-public-instance" style="outlineConnect=0;fontColor=#232F3E;gradientColor=none;fillColor=#D86613;strokeColor=none;dashed=0;verticalLabelPosition=bottom;verticalAlign=top;align=center;html=1;fontSize=12;fontStyle=0;aspect=fixed;pointerEvents=1;shape=mxgraph.aws4.instance2;" vertex="1" parent="1">
          <mxGeometry x="607" y="246" width="48" height="48" as="geometry" />
        </mxCell>
        <mxCell id="JZkUBXai_LNXm1DaVT8u-8" value="Private subnet" style="points=[[0,0],[0.25,0],[0.5,0],[0.75,0],[1,0],[1,0.25],[1,0.5],[1,0.75],[1,1],[0.75,1],[0.5,1],[0.25,1],[0,1],[0,0.75],[0,0.5],[0,0.25]];outlineConnect=0;gradientColor=none;html=1;whiteSpace=wrap;fontSize=12;fontStyle=0;shape=mxgraph.aws4.group;grIcon=mxgraph.aws4.group_security_group;grStroke=0;strokeColor=#147EBA;fillColor=#E6F2F8;verticalAlign=top;align=left;spacingLeft=30;fontColor=#147EBA;dashed=0;opacity=40;" vertex="1" parent="1">
          <mxGeometry x="400" y="380" width="500" height="140" as="geometry" />
        </mxCell>
        <mxCell id="JZkUBXai_LNXm1DaVT8u-34" value="" style="edgeStyle=orthogonalEdgeStyle;rounded=0;orthogonalLoop=1;jettySize=auto;html=1;strokeColor=#0000CC;fontColor=#3333FF;" edge="1" parent="1" source="JZkUBXai_LNXm1DaVT8u-5" target="JZkUBXai_LNXm1DaVT8u-14">
          <mxGeometry relative="1" as="geometry">
            <mxPoint x="568" y="470" as="targetPoint" />
          </mxGeometry>
        </mxCell>
        <mxCell id="JZkUBXai_LNXm1DaVT8u-5" value="10.0.12.0/16" style="outlineConnect=0;fontColor=#232F3E;gradientColor=none;fillColor=#D86613;strokeColor=none;dashed=0;verticalLabelPosition=bottom;verticalAlign=top;align=center;html=1;fontSize=12;fontStyle=0;aspect=fixed;pointerEvents=1;shape=mxgraph.aws4.instance2;" vertex="1" parent="1">
          <mxGeometry x="440" y="446" width="48" height="48" as="geometry" />
        </mxCell>
        <mxCell id="JZkUBXai_LNXm1DaVT8u-35" value="" style="edgeStyle=orthogonalEdgeStyle;rounded=0;orthogonalLoop=1;jettySize=auto;html=1;strokeColor=#0000CC;fontColor=#3333FF;" edge="1" parent="1" source="JZkUBXai_LNXm1DaVT8u-14" target="JZkUBXai_LNXm1DaVT8u-2">
          <mxGeometry relative="1" as="geometry">
            <mxPoint x="642.25" y="360" as="targetPoint" />
          </mxGeometry>
        </mxCell>
        <mxCell id="JZkUBXai_LNXm1DaVT8u-14" value="&lt;a href=&quot;https://ap-northeast-1.console.aws.amazon.com/vpc/home?region=ap-northeast-1#Addresses:public-ip=54.150.50.124&quot; target=&quot;_top&quot; class=&quot;&quot;&gt;54.150.50.124&lt;/a&gt;" style="outlineConnect=0;dashed=0;verticalLabelPosition=bottom;verticalAlign=top;align=center;html=1;shape=mxgraph.aws3.vpc_nat_gateway;fillColor=#F58534;gradientColor=none;" vertex="1" parent="1">
          <mxGeometry x="431.75" y="240" width="64.5" height="60" as="geometry" />
        </mxCell>
        <mxCell id="JZkUBXai_LNXm1DaVT8u-22" value="" style="endArrow=classic;html=1;fontColor=#3333FF;strokeColor=#0000CC;edgeStyle=orthogonalEdgeStyle;" edge="1" parent="1" source="JZkUBXai_LNXm1DaVT8u-2" target="JZkUBXai_LNXm1DaVT8u-24">
          <mxGeometry width="50" height="50" relative="1" as="geometry">
            <mxPoint x="624.8" y="244" as="sourcePoint" />
            <mxPoint x="624.8" y="202" as="targetPoint" />
            <Array as="points">
              <mxPoint x="631" y="210" />
              <mxPoint x="631" y="210" />
            </Array>
          </mxGeometry>
        </mxCell>
        <mxCell id="JZkUBXai_LNXm1DaVT8u-30" value="" style="edgeStyle=orthogonalEdgeStyle;rounded=0;orthogonalLoop=1;jettySize=auto;html=1;strokeColor=#0000CC;fontColor=#3333FF;" edge="1" parent="1" source="JZkUBXai_LNXm1DaVT8u-24" target="JZkUBXai_LNXm1DaVT8u-29">
          <mxGeometry relative="1" as="geometry" />
        </mxCell>
        <mxCell id="JZkUBXai_LNXm1DaVT8u-24" value="Internet&#xa;gateway" style="outlineConnect=0;fontColor=#232F3E;gradientColor=none;fillColor=#ffffff;dashed=0;verticalLabelPosition=bottom;verticalAlign=top;align=center;html=1;fontSize=12;fontStyle=0;aspect=fixed;shape=mxgraph.aws4.resourceIcon;resIcon=mxgraph.aws4.internet_gateway;strokeColor=#FF9933;" vertex="1" parent="1">
          <mxGeometry x="595" y="100" width="60" height="60" as="geometry" />
        </mxCell>
        <mxCell id="JZkUBXai_LNXm1DaVT8u-29" value="" style="outlineConnect=0;dashed=0;verticalLabelPosition=bottom;verticalAlign=top;align=center;html=1;shape=mxgraph.aws3.internet_2;fillColor=#D2D3D3;gradientColor=none;strokeColor=#FF9933;fontColor=#3333FF;" vertex="1" parent="1">
          <mxGeometry x="585" y="10" width="79.5" height="54" as="geometry" />
        </mxCell>
      </root>
    </mxGraphModel>
  </diagram>
</mxfile>
